<svg width="143" height="143" viewBox="0 0 143 143" fill="none" xmlns="http://www.w3.org/2000/svg">
<g clip-path="url(#clip0_713_24)">
<path d="M0 39.9194C0 31.1389 7.10873 24 15.8522 24H79.2611C88.0046 24 95.1133 31.1389 95.1133 39.9194V103.597C95.1133 112.378 88.0046 119.516 79.2611 119.516H15.8522C7.10873 119.516 0 112.378 0 103.597V39.9194ZM138.484 32.9049C141.06 34.2979 142.67 36.9843 142.67 39.9194V103.597C142.67 106.532 141.06 109.219 138.484 110.611C135.908 112.004 132.787 111.855 130.335 110.213L106.557 94.2941L103.039 91.931V87.6776V55.8388V51.5853L106.557 49.2223L130.335 33.3029C132.762 31.6861 135.883 31.512 138.484 32.9049Z" fill="black"/>
</g>
<defs>
<clipPath id="clip0_713_24">
<rect width="142.67" height="142.67" fill="white"/>
</clipPath>
</defs>
</svg>
