<svg width="54" height="44" viewBox="0 0 54 44" fill="none" xmlns="http://www.w3.org/2000/svg">
<g clip-path="url(#clip0_706_28)">
<path d="M0 12.1667C0 8.76536 2.69063 6 6 6H30C33.3094 6 36 8.76536 36 12.1667V36.8333C36 40.2346 33.3094 43 30 43H6C2.69063 43 0 40.2346 0 36.8333V12.1667ZM52.4156 9.44948C53.3906 9.98906 54 11.0297 54 12.1667V36.8333C54 37.9703 53.3906 39.0109 52.4156 39.5505C51.4406 40.0901 50.2594 40.0323 49.3313 39.3964L40.3313 33.2297L39 32.3143V30.6667V18.3333V16.6857L40.3313 15.7703L49.3313 9.60365C50.25 8.97734 51.4312 8.9099 52.4156 9.44948Z" fill="url(#paint0_linear_706_28)"/>
</g>
<defs>
<linearGradient id="paint0_linear_706_28" x1="27" y1="6" x2="27" y2="43" gradientUnits="userSpaceOnUse">
<stop stop-color="#B1EBB8"/>
<stop offset="1" stop-color="#00C3A6"/>
</linearGradient>
<clipPath id="clip0_706_28">
<rect width="53.87" height="43.61" fill="white"/>
</clipPath>
</defs>
</svg>
